<?xml version="1.0" encoding="UTF-8"?>
<svg version="1.1" xmlns="http://www.w3.org/2000/svg" width="272" height="56">
<path d="M0 0 C3.7348633 2.12462283 5.38720754 4.16650565 6.625 8.375 C6.39405426 12.76296902 5.43864559 16.38497969 3.625 20.375 C4.615 21.365 5.605 22.355 6.625 23.375 C6.72296875 22.6015625 6.8209375 21.828125 6.921875 21.03125 C8.0772996 12.98312002 9.10065358 6.18009205 15.6875 0.9375 C20.74057015 -1.75030327 24.99461658 -2.30346561 30.625 -1.625 C33.76639218 -0.53996409 36.69010021 0.82082139 39.625 2.375 C38.50048273 5.3469385 37.40206209 7.70940687 35.625 10.375 C34.6040625 10.1584375 34.6040625 10.1584375 33.5625 9.9375 C32.593125 9.751875 31.62375 9.56625 30.625 9.375 C29.449375 9.106875 28.27375 8.83875 27.0625 8.5625 C23.5799246 8.00505798 23.5799246 8.00505798 21.1875 10.1875 C19.43125394 12.19820672 19.43125394 12.19820672 19.625 14.375 C20.615 14.045 21.605 13.715 22.625 13.375 C28.08750368 12.95480741 31.83889139 13.66588192 36.625 16.375 C39.94780992 19.86821043 40.90564922 22.66957208 41.125 27.375 C40.91314732 32.07106784 39.88831306 34.85405697 36.625 38.375 C31.28770539 42.37797096 25.01566098 42.13844809 18.625 41.375 C13.16856323 39.65345043 10.35413244 36.1782731 7.625 31.375 C7.068125 32.73625 7.068125 32.73625 6.5 34.125 C4.35695987 37.83960289 2.69167553 40.0393396 -1.375 41.375 C-9.04298764 42.36951476 -15.60377911 42.27432127 -22.1171875 37.859375 C-23.375 36.375 -23.375 36.375 -23.375 32.375 C-21.375 30.125 -21.375 30.125 -19.375 28.375 C-18.3540625 28.808125 -18.3540625 28.808125 -17.3125 29.25 C-11.22974144 31.94844967 -11.22974144 31.94844967 -4.9375 31.5 C-4.421875 31.12875 -3.90625 30.7575 -3.375 30.375 C-3.375 29.055 -3.375 27.735 -3.375 26.375 C-5.67129994 25.22685003 -7.45198086 25.06730191 -10 24.8125 C-11.44375 24.668125 -12.8875 24.52375 -14.375 24.375 C-14.375 21.405 -14.375 18.435 -14.375 15.375 C-11.405 15.045 -8.435 14.715 -5.375 14.375 C-5.045 12.725 -4.715 11.075 -4.375 9.375 C-7.63776567 8.51486273 -7.63776567 8.51486273 -11.375 8.375 C-14.30360404 10.16545494 -14.30360404 10.16545494 -16.375 12.375 C-19.74091866 10.93246343 -21.88547079 9.04235273 -24.375 6.375 C-17.39999982 -1.21544138 -9.75032501 -4.28369058 0 0 Z M18.5625 23.5 C17.11183268 26.40133464 17.72048306 28.33840742 18.625 31.375 C21.52079382 33.74722995 21.52079382 33.74722995 25.1875 33.125 C28.67092612 32.6891556 28.67092612 32.6891556 30.625 30.375 C30.95833333 27.375 30.95833333 27.375 30.625 24.375 C28.62942887 21.9467978 28.62942887 21.9467978 24.6875 22.0625 C22.12518618 22.14169879 20.83727884 22.25921154 18.5625 23.5 Z " fill="#DA0075" transform="translate(187.375,13.625)"/>
<path d="M0 0 C3.96 0 7.92 0 12 0 C12.33 5.61 12.66 11.22 13 17 C14.32 16.01 15.64 15.02 17 14 C22.5898601 12.24528828 27.07307287 12.92377141 32.2734375 15.40625 C35.82947913 18.68874997 36.90528966 22.98765171 37.34057617 27.64038086 C37.3170105 29.53348999 37.3170105 29.53348999 37.29296875 31.46484375 C37.28872391 32.14301651 37.28447906 32.82118927 37.28010559 33.51991272 C37.26347941 35.65953402 37.22586174 37.79816947 37.1875 39.9375 C37.17243222 41.39907482 37.1587475 42.86066458 37.14648438 44.32226562 C37.11362977 47.88182397 37.06196241 51.44081556 37 55 C33.04 55 29.08 55 25 55 C24.97421875 53.16953125 24.9484375 51.3390625 24.921875 49.453125 C24.86560002 47.05205929 24.80825256 44.65101855 24.75 42.25 C24.73582031 41.0434375 24.72164062 39.836875 24.70703125 38.59375 C24.67480469 37.43359375 24.64257812 36.2734375 24.609375 35.078125 C24.58842773 34.00981445 24.56748047 32.94150391 24.54589844 31.84082031 C23.87686467 28.35921167 22.79753096 27.12160019 20 25 C16.60845705 25.16150205 15.41703243 25.58296757 13 28 C12.62760773 30.81402683 12.62760773 30.81402683 12.5859375 34.1015625 C12.52792969 35.91914062 12.52792969 35.91914062 12.46875 37.7734375 C12.42234375 39.67996094 12.42234375 39.67996094 12.375 41.625 C12.33632812 42.90375 12.29765625 44.1825 12.2578125 45.5 C12.16329244 48.66642211 12.080548 51.83319166 12 55 C8.04 55 4.08 55 0 55 C-0.02693575 52.87506859 -0.04636628 50.75004088 -0.0625 48.625 C-0.07410156 47.44164062 -0.08570312 46.25828125 -0.09765625 45.0390625 C0 42 0 42 1 40 C1.09585131 38.35643193 1.12983511 36.70885358 1.125 35.0625 C1.12757812 34.18722656 1.13015625 33.31195313 1.1328125 32.41015625 C1.09822003 29.85540944 1.09822003 29.85540944 0 27 C-0.08315752 24.93501108 -0.10735878 22.8674211 -0.09765625 20.80078125 C-0.09443359 19.59228516 -0.09121094 18.38378906 -0.08789062 17.13867188 C-0.07951172 15.87603516 -0.07113281 14.61339844 -0.0625 13.3125 C-0.05573242 11.40114258 -0.05573242 11.40114258 -0.04882812 9.45117188 C-0.03702883 6.3007613 -0.01909318 3.15037481 0 0 Z " fill="#181515" transform="translate(81,0)"/>
<path d="M0 0 C5.1302937 3.66149796 8.10502997 7.55575238 9.5625 13.75 C10.14795442 21.00963483 8.67554706 26.3065159 4.875 32.5 C-0.18373438 37.42201183 -5.9265253 39.41458744 -12.921875 39.84375 C-19.67735844 39.59199285 -25.11951214 37.03000472 -29.99609375 32.40234375 C-34.39567259 27.35892411 -34.98823404 21.90152678 -34.78515625 15.46484375 C-34.04991604 9.72336122 -31.69790689 6.06903047 -27.75 1.9375 C-19.14558417 -3.7446614 -9.26002339 -5.43897285 0 0 Z M-21.4375 12.75 C-23.01205739 15.89911479 -22.78549118 18.27008816 -22.4375 21.75 C-20.66469439 24.72672584 -18.58141985 27.17804007 -15.4375 28.75 C-11.35694957 29.30643869 -9.69698881 28.90667249 -6.125 26.75 C-3.21362149 24.05314412 -2.47188505 21.58735571 -2.265625 17.67578125 C-2.61184494 13.79654417 -4.57976963 11.6383636 -7.1875 8.9375 C-13.34997288 5.68508376 -17.33215095 7.67868647 -21.4375 12.75 Z " fill="#181516" transform="translate(154.4375,16.25)"/>
<path d="M0 0 C6.53570685 4.83642307 7.71165569 9.88363017 8.92578125 17.60546875 C9.125 20.3125 9.125 20.3125 8.125 23.3125 C-0.785 23.3125 -9.695 23.3125 -18.875 23.3125 C-15.53172615 28.46743838 -15.53172615 28.46743838 -11.5 29.3125 C-7.40476383 29.3125 -5.43326837 28.21024313 -1.875 26.3125 C1.21632818 26.40342142 2.06719007 27.25950757 4.375 29.375 C5.24125 30.3340625 5.24125 30.3340625 6.125 31.3125 C4.71508837 34.71978644 3.3274372 36.45845741 0.125 38.3125 C-6.69165316 40.66307006 -13.37452496 41.24569375 -20.1484375 38.3359375 C-25.60393545 35.19243497 -28.85847581 31.36207257 -30.875 25.3125 C-31.51732079 17.61518035 -31.72515892 10.64924013 -26.875 4.3125 C-19.94841549 -3.47242207 -9.1116179 -4.67312592 0 0 Z M-16.875 9.3125 C-19.1523501 12.12759993 -19.1523501 12.12759993 -18.875 15.3125 C-13.595 15.3125 -8.315 15.3125 -2.875 15.3125 C-5.21348142 9.39518982 -5.21348142 9.39518982 -8.875 7.3125 C-12.65649076 7.3125 -13.839349 7.38992103 -16.875 9.3125 Z " fill="#181516" transform="translate(30.875,15.6875)"/>
<path d="M0 0 C5.19143666 2.93605713 7.58537824 6.35919218 9.5625 11.9375 C11.41484677 18.71931603 10.8726707 25.00685851 8.625 31.625 C5.80629619 35.66514213 2.18473259 39.0951337 -2.25 41.3125 C-9.65751496 41.99817286 -15.31127704 42.01398901 -21.25 37.3125 C-25.83906966 31.73119906 -27.72433586 25.65670644 -27.5 18.421875 C-26.68416483 11.53826576 -24.25287113 6.0879679 -19.25 1.3125 C-12.74353713 -2.37040351 -6.76392672 -3.08706117 0 0 Z M-12.875 8.9375 C-15.71214981 11.77464981 -16.5065758 13.37235172 -17.25 17.3125 C-17.24060137 22.63212434 -16.60706053 27.01546252 -13.25 31.3125 C-10.40916359 32.73291821 -8.39522722 32.62702272 -5.25 32.3125 C-1.94167745 30.19884948 -0.86745286 27.7821699 0.1875 24.125 C1.14559045 18.99540068 0.1544175 14.90275159 -2.25 10.3125 C-4.01666979 8.16995428 -4.01666979 8.16995428 -6.25 7.3125 C-10.19770195 6.96159692 -10.19770195 6.96159692 -12.875 8.9375 Z " fill="#DA0075" transform="translate(256.25,13.6875)"/>
<path d="M0 0 C0.495 0.433125 0.99 0.86625 1.5 1.3125 C1.02797514 5.56072374 -1.46655518 7.51239709 -4.5 10.3125 C-9.25 8.4375 -9.25 8.4375 -11.5 7.3125 C-15.43429172 6.78792777 -17.04458957 7.00559297 -20.375 9.25 C-22.85812651 12.8286235 -23.25130685 14.87579492 -22.97265625 19.1484375 C-22.56377208 21.59743471 -22.56377208 21.59743471 -20.5625 24.4375 C-16.77400791 26.75698495 -14.76123483 26.54149143 -10.48828125 25.90234375 C-8.29247782 25.42284311 -8.29247782 25.42284311 -6.5 23.3125 C-4.625 23.375 -4.625 23.375 -2.5 24.3125 C-0.25 26.875 -0.25 26.875 1.5 29.3125 C-0.03254775 33.60363371 -2.5021683 35.27851545 -6.5 37.3125 C-13.42149554 38.89822963 -20.25215202 38.98355192 -26.5 35.3125 C-31.08958612 31.17046434 -35.08295193 26.63132462 -35.87109375 20.359375 C-36.04340215 11.80476958 -34.8943263 7.02070675 -29.078125 0.7890625 C-20.62768156 -7.07075855 -9.02539215 -6.0921397 0 0 Z " fill="#171515" transform="translate(76.5,17.6875)"/>
<path d="M0 0 C1.67542976 0.28604898 3.34385343 0.61781233 5 1 C5 2.65 5 4.3 5 6 C2.625 6.625 2.625 6.625 0 7 C-0.66 6.34 -1.32 5.68 -2 5 C-1.46428571 1.46428571 -1.46428571 1.46428571 0 0 Z " fill="#DB0075" transform="translate(267,14)"/>
</svg>
